<svg xmlns="http://www.w3.org/2000/svg" viewBox="0 0 64 64" role="img" aria-labelledby="title">
  <title>Discussion icon</title>
  <path d="M12 16h26a8 8 0 0 1 8 8v10a8 8 0 0 1-8 8H24l-8 8v-8h-4a8 8 0 0 1-8-8V24a8 8 0 0 1 8-8z" fill="#f4f8fa" stroke="#2a90bf" stroke-width="3"/>
  <path d="M25 26h26a8 8 0 0 1 8 8v9a8 8 0 0 1-8 8H39l-7 7v-7" fill="#ffffff" stroke="#c57b30" stroke-width="3" stroke-linejoin="round"/>
  <path d="M18 26h14M18 33h10M32 36h18M32 43h13" stroke="#1f6f94" stroke-width="3" stroke-linecap="round"/>
</svg>
