<svg xmlns="http://www.w3.org/2000/svg" viewBox="0 0 256 256" role="img" aria-labelledby="title desc">
  <title id="title">Lesotho Meteorological Services logo</title>
  <desc id="desc">A circular emblem with blue sky, orange earth, a green mountain with LMS lettering, and simplified weather service symbols.</desc>
  <defs>
    <linearGradient id="sky" x1="0%" y1="0%" x2="100%" y2="100%">
      <stop offset="0%" stop-color="#71c4ea"/>
      <stop offset="100%" stop-color="#2198d3"/>
    </linearGradient>
    <linearGradient id="earth" x1="0%" y1="0%" x2="100%" y2="100%">
      <stop offset="0%" stop-color="#ce8135"/>
      <stop offset="100%" stop-color="#b8691f"/>
    </linearGradient>
    <linearGradient id="mountain" x1="0%" y1="0%" x2="100%" y2="0%">
      <stop offset="0%" stop-color="#76b654"/>
      <stop offset="100%" stop-color="#55a542"/>
    </linearGradient>
    <clipPath id="circleClip">
      <circle cx="128" cy="128" r="120"/>
    </clipPath>
  </defs>

  <circle cx="128" cy="128" r="123" fill="#101417"/>
  <circle cx="128" cy="128" r="119" fill="#d38735"/>

  <g clip-path="url(#circleClip)">
    <rect x="8" y="8" width="240" height="128" fill="url(#sky)"/>
    <rect x="8" y="136" width="240" height="112" fill="url(#earth)"/>
    <ellipse cx="128" cy="142" rx="92" ry="10" fill="#2387b6" opacity="0.18"/>

    <g fill="#f2f2f2" stroke="#101417" stroke-width="1.2">
      <path d="M66 74c0-8 6-14 14-14 3 0 6 1 8 3 2-5 7-8 12-8 7 0 12 4 14 10 1 0 2 0 3 0 8 0 14 6 14 14s-7 14-15 14H80c-8 0-14-6-14-14z"/>
      <path d="M148 98c0-11 9-20 20-20 4 0 8 1 11 3 3-8 11-13 19-13 10 0 18 7 20 16 1 0 2 0 3 0 11 0 20 9 20 20s-9 20-20 20h-54c-11 0-19-9-19-20z"/>
      <path d="M96 112c0-13 10-23 23-23 5 0 9 1 13 4 4-9 13-15 23-15 13 0 23 9 25 21 2 0 3 0 4 0 14 0 25 11 25 25s-11 24-25 24h-63c-14 0-25-11-25-24z"/>
    </g>

    <g stroke="#101417" stroke-width="3" stroke-linecap="round" stroke-linejoin="round">
      <line x1="128" y1="78" x2="128" y2="144"/>
      <line x1="116" y1="82" x2="140" y2="82"/>
      <line x1="128" y1="144" x2="128" y2="165"/>
      <circle cx="120" cy="76" r="3.5" fill="#101417"/>
      <circle cx="136" cy="76" r="3.5" fill="#101417"/>
      <rect x="121" y="85" width="14" height="12" rx="1.5" fill="#101417"/>
      <line x1="146" y1="82" x2="158" y2="82"/>
      <rect x="158" y="76" width="14" height="12" fill="#101417"/>
      <path d="M128 104c6 0 10 4 10 9 0 5-4 9-10 9"/>
      <path d="M128 104c-6 0-10 4-10 9 0 5 4 9 10 9"/>
    </g>

    <g fill="#f5f2ec" stroke="#101417" stroke-width="1.3">
      <path d="M74 97c13 0 22 9 25 27 3 18-2 33-14 43-9-6-14-16-14-31 0-19 1-30 3-39z"/>
      <path d="M182 97c-13 0-22 9-25 27-3 18 2 33 14 43 9-6 14-16 14-31 0-19-1-30-3-39z"/>
    </g>
    <g stroke="#101417" stroke-width="1.2" fill="none" opacity="0.75">
      <path d="M74 110l-18 11 26 8"/>
      <path d="M182 110l18 11-26 8"/>
      <path d="M87 103l-20 27"/>
      <path d="M169 103l20 27"/>
    </g>

    <path d="M45 183L128 129l83 54H45z" fill="url(#mountain)" stroke="#101417" stroke-width="2"/>
    <path d="M60 182l8 8 9-8 9 8 10-8 9 8 10-8 8 8 10-8 9 8 10-8 10 8 8-8 9 8 9-8v11H60z" fill="#ececec"/>
    <path d="M60 188l8 6 9-6 9 6 10-6 9 6 10-6 8 6 10-6 9 6 10-6 10 6 8-6 9 6 9-6" fill="none" stroke="#2e9fd6" stroke-width="2"/>

    <text x="128" y="170" text-anchor="middle" font-size="40" font-family="Arial, Helvetica, sans-serif" font-weight="700" fill="#101417">LMS</text>

    <path d="M58 198h140a0 0 0 0 1 0 0c0 14-31 26-70 26s-70-12-70-26a0 0 0 0 1 0 0z" fill="#d88d3d" opacity="0.96"/>
    <text x="128" y="214" text-anchor="middle" font-size="10.5" font-family="Arial, Helvetica, sans-serif" font-weight="700" fill="#101417" letter-spacing="0.6">LESOTHO METEOROLOGICAL SERVICES</text>
  </g>
</svg>
